<svg xmlns="http://www.w3.org/2000/svg" xmlns:xlink="http://www.w3.org/1999/xlink" width="500" zoomAndPan="magnify" viewBox="0 0 375 374.999991" height="500" preserveAspectRatio="xMidYMid meet" version="1.0"><defs><filter x="0%" y="0%" width="100%" height="100%" id="4d3a4d5746"><feColorMatrix values="0 0 0 0 1 0 0 0 0 1 0 0 0 0 1 0 0 0 1 0" color-interpolation-filters="sRGB"/></filter><g/><clipPath id="d9004be57b"><path d="M 138.835938 138.742188 L 251.175781 138.742188 L 251.175781 240.941406 L 138.835938 240.941406 Z M 138.835938 138.742188 " clip-rule="nonzero"/></clipPath><clipPath id="12c5104ef0"><path d="M 153.835938 138.742188 L 236.175781 138.742188 C 240.152344 138.742188 243.96875 140.324219 246.78125 143.136719 C 249.59375 145.949219 251.175781 149.765625 251.175781 153.742188 L 251.175781 225.941406 C 251.175781 229.917969 249.59375 233.734375 246.78125 236.546875 C 243.96875 239.359375 240.152344 240.941406 236.175781 240.941406 L 153.835938 240.941406 C 149.855469 240.941406 146.042969 239.359375 143.226562 236.546875 C 140.414062 233.734375 138.835938 229.917969 138.835938 225.941406 L 138.835938 153.742188 C 138.835938 149.765625 140.414062 145.949219 143.226562 143.136719 C 146.042969 140.324219 149.855469 138.742188 153.835938 138.742188 Z M 153.835938 138.742188 " clip-rule="nonzero"/></clipPath><clipPath id="75eb01a3eb"><path d="M 138.835938 138.742188 L 251.328125 138.742188 L 251.328125 240.742188 L 138.835938 240.742188 Z M 138.835938 138.742188 " clip-rule="nonzero"/></clipPath><clipPath id="6be774420c"><path d="M 153.835938 138.742188 L 236.167969 138.742188 C 240.148438 138.742188 243.960938 140.324219 246.773438 143.136719 C 249.585938 145.949219 251.167969 149.765625 251.167969 153.742188 L 251.167969 225.933594 C 251.167969 229.910156 249.585938 233.726562 246.773438 236.539062 C 243.960938 239.351562 240.148438 240.929688 236.167969 240.929688 L 153.835938 240.929688 C 149.859375 240.929688 146.042969 239.351562 143.230469 236.539062 C 140.417969 233.726562 138.839844 229.910156 138.839844 225.933594 L 138.839844 153.742188 C 138.839844 149.765625 140.417969 145.949219 143.230469 143.136719 C 146.042969 140.324219 149.859375 138.742188 153.835938 138.742188 Z M 153.835938 138.742188 " clip-rule="nonzero"/></clipPath><clipPath id="7bd9d00ffc"><path d="M 85 64 L 321 64 L 321 324.496094 L 85 324.496094 Z M 85 64 " clip-rule="nonzero"/></clipPath><clipPath id="3e5aa9fb80"><path d="M 80 61 L 324.496094 61 L 324.496094 324.496094 L 80 324.496094 Z M 80 61 " clip-rule="nonzero"/></clipPath><mask id="a1b14acb2c"><g filter="url(#4d3a4d5746)"><rect x="-37.5" width="450" fill="#000000" y="-37.499999" height="449.999989" fill-opacity="0.61"/></g></mask><clipPath id="311c396d7d"><path d="M 2 3 L 239 3 L 239 263.496094 L 2 263.496094 Z M 2 3 " clip-rule="nonzero"/></clipPath><clipPath id="bf5d73df59"><rect x="0" width="245" y="0" height="264"/></clipPath><clipPath id="7c415f3c73"><path d="M 74 57 L 324.496094 57 L 324.496094 324.496094 L 74 324.496094 Z M 74 57 " clip-rule="nonzero"/></clipPath><mask id="c205edd80c"><g filter="url(#4d3a4d5746)"><rect x="-37.5" width="450" fill="#000000" y="-37.499999" height="449.999989" fill-opacity="0.35"/></g></mask><clipPath id="93ec38a63f"><path d="M 6 7 L 243 7 L 243 267.496094 L 6 267.496094 Z M 6 7 " clip-rule="nonzero"/></clipPath><clipPath id="d9b83813af"><rect x="0" width="251" y="0" height="268"/></clipPath><clipPath id="0acd0f3106"><path d="M 50.746094 50.746094 L 324.496094 50.746094 L 324.496094 324.496094 L 50.746094 324.496094 Z M 50.746094 50.746094 " clip-rule="nonzero"/></clipPath><mask id="05aac85e35"><g filter="url(#4d3a4d5746)"><rect x="-37.5" width="450" fill="#000000" y="-37.499999" height="449.999989" fill-opacity="0.68"/></g></mask><clipPath id="472c94bc32"><rect x="0" width="275" y="0" height="275"/></clipPath><mask id="c6f6c8e6f0"><g filter="url(#4d3a4d5746)"><rect x="-37.5" width="450" fill="#000000" y="-37.499999" height="449.999989" fill-opacity="0.32"/></g></mask><clipPath id="8011ad45cb"><rect x="0" width="275" y="0" height="275"/></clipPath><clipPath id="378ad8ffcf"><path d="M 50.746094 50.746094 L 314 50.746094 L 314 324.496094 L 50.746094 324.496094 Z M 50.746094 50.746094 " clip-rule="nonzero"/></clipPath><mask id="b63ca70297"><g filter="url(#4d3a4d5746)"><rect x="-37.5" width="450" fill="#000000" y="-37.499999" height="449.999989" fill-opacity="0.5"/></g></mask><clipPath id="d7153d7e4b"><rect x="0" width="264" y="0" height="275"/></clipPath><clipPath id="d31e5e731b"><path d="M 50.746094 50.746094 L 324.496094 50.746094 L 324.496094 324.496094 L 50.746094 324.496094 Z M 50.746094 50.746094 " clip-rule="nonzero"/></clipPath><mask id="8c21a37bc1"><g filter="url(#4d3a4d5746)"><rect x="-37.5" width="450" fill="#000000" y="-37.499999" height="449.999989" fill-opacity="0.29"/></g></mask><clipPath id="7007c9135a"><rect x="0" width="275" y="0" height="275"/></clipPath><clipPath id="a0ced3288d"><path d="M 50.746094 50.746094 L 324.496094 50.746094 L 324.496094 324.496094 L 50.746094 324.496094 Z M 50.746094 50.746094 " clip-rule="nonzero"/></clipPath><clipPath id="07e40327b2"><path d="M 273.269531 386.585938 L 386.585938 106.117188 L 106.117188 -7.199219 L -7.199219 273.269531 Z M 273.269531 386.585938 " clip-rule="nonzero"/></clipPath><clipPath id="59f66c2ff6"><path d="M 273.269531 386.585938 L 386.585938 106.117188 L 106.117188 -7.199219 L -7.199219 273.269531 Z M 273.269531 386.585938 " clip-rule="nonzero"/></clipPath><mask id="e54cb1340d"><g filter="url(#4d3a4d5746)"><rect x="-37.5" width="450" fill="#000000" y="-37.499999" height="449.999989" fill-opacity="0.16"/></g></mask><clipPath id="7c96f21c5f"><path d="M 8 6 L 265 6 L 265 227 L 8 227 Z M 8 6 " clip-rule="nonzero"/></clipPath><clipPath id="83f8434420"><path d="M 223.269531 336.585938 L 336.585938 56.117188 L 56.117188 -57.199219 L -57.199219 223.269531 Z M 223.269531 336.585938 " clip-rule="nonzero"/></clipPath><clipPath id="fa574532ee"><path d="M 223.269531 336.585938 L 336.585938 56.117188 L 56.117188 -57.199219 L -57.199219 223.269531 Z M 223.269531 336.585938 " clip-rule="nonzero"/></clipPath><clipPath id="294813c2df"><path d="M 0.746094 0.746094 L 274.496094 0.746094 L 274.496094 273 L 0.746094 273 Z M 0.746094 0.746094 " clip-rule="nonzero"/></clipPath><clipPath id="95a124ef41"><path d="M 223.269531 336.585938 L 336.585938 56.117188 L 56.117188 -57.199219 L -57.199219 223.269531 Z M 223.269531 336.585938 " clip-rule="nonzero"/></clipPath><clipPath id="7d67782315"><path d="M 223.269531 336.585938 L 336.585938 56.117188 L 56.117188 -57.199219 L -57.199219 223.269531 Z M 223.269531 336.585938 " clip-rule="nonzero"/></clipPath><mask id="d37cb77842"><g filter="url(#4d3a4d5746)"><rect x="-132.5" width="540" fill="#000000" y="-132.499998" height="539.999987" fill-opacity="0.61"/></g></mask><clipPath id="97be458bea"><path d="M 7 6 L 265 6 L 265 230 L 7 230 Z M 7 6 " clip-rule="nonzero"/></clipPath><clipPath id="aa93d3c8c5"><path d="M 223.269531 336.585938 L 336.585938 56.117188 L 56.117188 -57.199219 L -57.199219 223.269531 Z M 223.269531 336.585938 " clip-rule="nonzero"/></clipPath><clipPath id="e88da778ed"><path d="M 223.269531 336.585938 L 336.585938 56.117188 L 56.117188 -57.199219 L -57.199219 223.269531 Z M 223.269531 336.585938 " clip-rule="nonzero"/></clipPath><clipPath id="b7c1d789bb"><rect x="0" width="275" y="0" height="273"/></clipPath><clipPath id="b9677d141d"><path d="M 0.746094 0.746094 L 274.496094 0.746094 L 274.496094 268 L 0.746094 268 Z M 0.746094 0.746094 " clip-rule="nonzero"/></clipPath><clipPath id="a28131acdd"><path d="M 223.269531 336.585938 L 336.585938 56.117188 L 56.117188 -57.199219 L -57.199219 223.269531 Z M 223.269531 336.585938 " clip-rule="nonzero"/></clipPath><clipPath id="f2155cfe7b"><path d="M 223.269531 336.585938 L 336.585938 56.117188 L 56.117188 -57.199219 L -57.199219 223.269531 Z M 223.269531 336.585938 " clip-rule="nonzero"/></clipPath><mask id="b8e49fbbc7"><g filter="url(#4d3a4d5746)"><rect x="-132.5" width="540" fill="#000000" y="-132.499998" height="539.999987" fill-opacity="0.35"/></g></mask><clipPath id="616df6d268"><path d="M 6 6 L 265 6 L 265 233 L 6 233 Z M 6 6 " clip-rule="nonzero"/></clipPath><clipPath id="a47301d4bf"><path d="M 223.269531 336.585938 L 336.585938 56.117188 L 56.117188 -57.199219 L -57.199219 223.269531 Z M 223.269531 336.585938 " clip-rule="nonzero"/></clipPath><clipPath id="8b6677bfd2"><path d="M 223.269531 336.585938 L 336.585938 56.117188 L 56.117188 -57.199219 L -57.199219 223.269531 Z M 223.269531 336.585938 " clip-rule="nonzero"/></clipPath><clipPath id="54e92389e1"><rect x="0" width="275" y="0" height="268"/></clipPath><clipPath id="5475c70850"><path d="M 15 20 L 252 20 L 252 264 L 15 264 Z M 15 20 " clip-rule="nonzero"/></clipPath><clipPath id="b77483fa60"><path d="M 223.269531 336.585938 L 336.585938 56.117188 L 56.117188 -57.199219 L -57.199219 223.269531 Z M 223.269531 336.585938 " clip-rule="nonzero"/></clipPath><clipPath id="8e939d04b8"><path d="M 223.269531 336.585938 L 336.585938 56.117188 L 56.117188 -57.199219 L -57.199219 223.269531 Z M 223.269531 336.585938 " clip-rule="nonzero"/></clipPath><clipPath id="ed47b982b0"><path d="M 0.746094 0.746094 L 274.496094 0.746094 L 274.496094 274.496094 L 0.746094 274.496094 Z M 0.746094 0.746094 " clip-rule="nonzero"/></clipPath><clipPath id="cbf0f9c54a"><path d="M 223.269531 336.585938 L 336.585938 56.117188 L 56.117188 -57.199219 L -57.199219 223.269531 Z M 223.269531 336.585938 " clip-rule="nonzero"/></clipPath><clipPath id="ecf542eead"><path d="M 223.269531 336.585938 L 336.585938 56.117188 L 56.117188 -57.199219 L -57.199219 223.269531 Z M 223.269531 336.585938 " clip-rule="nonzero"/></clipPath><mask id="01e6b1933d"><g filter="url(#4d3a4d5746)"><rect x="-132.5" width="540" fill="#000000" y="-132.499998" height="539.999987" fill-opacity="0.68"/></g></mask><clipPath id="6b720bb8ee"><path d="M 14 19 L 249 19 L 249 265 L 14 265 Z M 14 19 " clip-rule="nonzero"/></clipPath><clipPath id="6a591321ae"><path d="M 223.269531 336.585938 L 336.585938 56.117188 L 56.117188 -57.199219 L -57.199219 223.269531 Z M 223.269531 336.585938 " clip-rule="nonzero"/></clipPath><clipPath id="a65397d6bc"><path d="M 223.269531 336.585938 L 336.585938 56.117188 L 56.117188 -57.199219 L -57.199219 223.269531 Z M 223.269531 336.585938 " clip-rule="nonzero"/></clipPath><clipPath id="6c7508f287"><rect x="0" width="275" y="0" height="275"/></clipPath><mask id="5a009c085a"><g filter="url(#4d3a4d5746)"><rect x="-132.5" width="540" fill="#000000" y="-132.499998" height="539.999987" fill-opacity="0.32"/></g></mask><clipPath id="4b0baf6376"><path d="M 12 17 L 245 17 L 245 267 L 12 267 Z M 12 17 " clip-rule="nonzero"/></clipPath><clipPath id="6f0d3d2488"><path d="M 223.269531 336.585938 L 336.585938 56.117188 L 56.117188 -57.199219 L -57.199219 223.269531 Z M 223.269531 336.585938 " clip-rule="nonzero"/></clipPath><clipPath id="c4c543f96e"><path d="M 223.269531 336.585938 L 336.585938 56.117188 L 56.117188 -57.199219 L -57.199219 223.269531 Z M 223.269531 336.585938 " clip-rule="nonzero"/></clipPath><clipPath id="50c2d81bad"><rect x="0" width="275" y="0" height="275"/></clipPath><clipPath id="156c23a649"><path d="M 16 46 L 271 46 L 271 270 L 16 270 Z M 16 46 " clip-rule="nonzero"/></clipPath><clipPath id="4d6810db47"><path d="M 223.269531 336.585938 L 336.585938 56.117188 L 56.117188 -57.199219 L -57.199219 223.269531 Z M 223.269531 336.585938 " clip-rule="nonzero"/></clipPath><clipPath id="4719120c29"><path d="M 223.269531 336.585938 L 336.585938 56.117188 L 56.117188 -57.199219 L -57.199219 223.269531 Z M 223.269531 336.585938 " clip-rule="nonzero"/></clipPath><clipPath id="6335623814"><path d="M 0.746094 0.746094 L 274.496094 0.746094 L 274.496094 274.496094 L 0.746094 274.496094 Z M 0.746094 0.746094 " clip-rule="nonzero"/></clipPath><clipPath id="efd8849e36"><path d="M 223.269531 336.585938 L 336.585938 56.117188 L 56.117188 -57.199219 L -57.199219 223.269531 Z M 223.269531 336.585938 " clip-rule="nonzero"/></clipPath><clipPath id="e65ede49d5"><path d="M 223.269531 336.585938 L 336.585938 56.117188 L 56.117188 -57.199219 L -57.199219 223.269531 Z M 223.269531 336.585938 " clip-rule="nonzero"/></clipPath><mask id="89fe476cce"><g filter="url(#4d3a4d5746)"><rect x="-132.5" width="540" fill="#000000" y="-132.499998" height="539.999987" fill-opacity="0.5"/></g></mask><clipPath id="fb6c9f5d80"><path d="M 16 50 L 272 50 L 272 271 L 16 271 Z M 16 50 " clip-rule="nonzero"/></clipPath><clipPath id="9a98ce1788"><path d="M 223.269531 336.585938 L 336.585938 56.117188 L 56.117188 -57.199219 L -57.199219 223.269531 Z M 223.269531 336.585938 " clip-rule="nonzero"/></clipPath><clipPath id="5990f541bb"><path d="M 223.269531 336.585938 L 336.585938 56.117188 L 56.117188 -57.199219 L -57.199219 223.269531 Z M 223.269531 336.585938 " clip-rule="nonzero"/></clipPath><clipPath id="800a5ae811"><rect x="0" width="275" y="0" height="275"/></clipPath><mask id="f921948581"><g filter="url(#4d3a4d5746)"><rect x="-132.5" width="540" fill="#000000" y="-132.499998" height="539.999987" fill-opacity="0.29"/></g></mask><clipPath id="464b762398"><path d="M 15 47 L 273 47 L 273 272 L 15 272 Z M 15 47 " clip-rule="nonzero"/></clipPath><clipPath id="fdc1369054"><path d="M 223.269531 336.585938 L 336.585938 56.117188 L 56.117188 -57.199219 L -57.199219 223.269531 Z M 223.269531 336.585938 " clip-rule="nonzero"/></clipPath><clipPath id="525598e6fa"><path d="M 223.269531 336.585938 L 336.585938 56.117188 L 56.117188 -57.199219 L -57.199219 223.269531 Z M 223.269531 336.585938 " clip-rule="nonzero"/></clipPath><clipPath id="efd77f3243"><rect x="0" width="275" y="0" height="275"/></clipPath><clipPath id="d9a20c31b0"><rect x="0" width="275" y="0" height="275"/></clipPath></defs><g clip-path="url(#d9004be57b)"><g clip-path="url(#12c5104ef0)"><path fill="#39db4a" d="M 138.835938 138.742188 L 251.175781 138.742188 L 251.175781 240.941406 L 138.835938 240.941406 Z M 138.835938 138.742188 " fill-opacity="1" fill-rule="nonzero"/></g></g><g clip-path="url(#75eb01a3eb)"><g clip-path="url(#6be774420c)"><path fill="#39db4a" d="M 159.835938 135.742188 L 162.835938 135.742188 L 162.835938 141.742188 L 159.835938 141.742188 Z M 165.835938 135.742188 L 168.835938 135.742188 L 168.835938 141.742188 L 165.835938 141.742188 Z M 171.835938 135.742188 L 174.835938 135.742188 L 174.835938 141.742188 L 171.835938 141.742188 Z M 177.835938 135.742188 L 180.835938 135.742188 L 180.835938 141.742188 L 177.835938 141.742188 Z M 183.835938 135.742188 L 186.835938 135.742188 L 186.835938 141.742188 L 183.835938 141.742188 Z M 189.835938 135.742188 L 192.835938 135.742188 L 192.835938 141.742188 L 189.835938 141.742188 Z M 195.835938 135.742188 L 198.835938 135.742188 L 198.835938 141.742188 L 195.835938 141.742188 Z M 201.835938 135.742188 L 204.835938 135.742188 L 204.835938 141.742188 L 201.835938 141.742188 Z M 207.835938 135.742188 L 210.835938 135.742188 L 210.835938 141.742188 L 207.835938 141.742188 Z M 213.835938 135.742188 L 216.835938 135.742188 L 216.835938 141.742188 L 213.835938 141.742188 Z M 219.835938 135.742188 L 222.835938 135.742188 L 222.835938 141.742188 L 219.835938 141.742188 Z M 225.835938 135.742188 L 228.835938 135.742188 L 228.835938 141.742188 L 225.835938 141.742188 Z M 231.835938 135.742188 L 234.835938 135.742188 L 234.835938 141.742188 L 231.835938 141.742188 Z M 238.175781 135.855469 C 239.371094 135.988281 240.542969 136.242188 241.691406 136.613281 L 239.851562 142.320312 C 239.085938 142.074219 238.304688 141.90625 237.507812 141.816406 Z M 244.984375 138.050781 C 246.042969 138.644531 247.027344 139.339844 247.945312 140.132812 L 244.019531 144.667969 C 243.410156 144.140625 242.75 143.675781 242.046875 143.28125 Z M 250.445312 142.785156 C 251.183594 143.742188 251.816406 144.765625 252.34375 145.851562 L 246.953125 148.480469 C 246.601562 147.757812 246.179688 147.074219 245.6875 146.4375 Z M 253.589844 149.222656 C 253.894531 150.390625 254.078125 151.574219 254.140625 152.777344 L 248.152344 153.097656 C 248.109375 152.296875 247.984375 151.507812 247.785156 150.730469 Z M 254.167969 155.945312 L 254.167969 158.945312 L 248.167969 158.945312 L 248.167969 155.945312 Z M 254.167969 161.945312 L 254.167969 164.945312 L 248.167969 164.945312 L 248.167969 161.945312 Z M 254.167969 167.945312 L 254.167969 170.945312 L 248.167969 170.945312 L 248.167969 167.945312 Z M 254.167969 173.945312 L 254.167969 176.945312 L 248.167969 176.945312 L 248.167969 173.945312 Z M 254.167969 179.945312 L 254.167969 182.945312 L 248.167969 182.945312 L 248.167969 179.945312 Z M 254.167969 185.945312 L 254.167969 188.945312 L 248.167969 188.945312 L 248.167969 185.945312 Z M 254.167969 191.945312 L 254.167969 194.945312 L 248.167969 194.945312 L 248.167969 191.945312 Z M 254.167969 197.945312 L 254.167969 200.945312 L 248.167969 200.945312 L 248.167969 197.945312 Z M 254.167969 203.945312 L 254.167969 206.945312 L 248.167969 206.945312 L 248.167969 203.945312 Z M 254.167969 209.945312 L 254.167969 212.945312 L 248.167969 212.945312 L 248.167969 209.945312 Z M 254.167969 215.945312 L 254.167969 218.945312 L 248.167969 218.945312 L 248.167969 215.945312 Z M 254.167969 221.945312 L 254.167969 224.945312 L 248.167969 224.945312 L 248.167969 221.945312 Z M 254.003906 228.347656 C 253.84375 229.542969 253.5625 230.707031 253.167969 231.847656 L 247.5 229.875 C 247.765625 229.117188 247.953125 228.339844 248.058594 227.542969 Z M 251.652344 235.109375 C 251.035156 236.152344 250.316406 237.125 249.503906 238.023438 L 245.058594 233.992188 C 245.601562 233.394531 246.078125 232.746094 246.492188 232.050781 Z M 246.792969 240.460938 C 245.820312 241.171875 244.785156 241.78125 243.6875 242.285156 L 241.179688 236.835938 C 241.914062 236.496094 242.601562 236.09375 243.253906 235.617188 Z M 240.285156 243.453125 C 239.113281 243.730469 237.921875 243.886719 236.71875 243.921875 L 236.535156 237.925781 C 237.339844 237.902344 238.128906 237.796875 238.914062 237.613281 Z M 233.621094 243.929688 L 230.621094 243.929688 L 230.621094 237.929688 L 233.621094 237.929688 Z M 227.621094 243.929688 L 224.621094 243.929688 L 224.621094 237.929688 L 227.621094 237.929688 Z M 221.621094 243.929688 L 218.621094 243.929688 L 218.621094 237.929688 L 221.621094 237.929688 Z M 215.621094 243.929688 L 212.621094 243.929688 L 212.621094 237.929688 L 215.621094 237.929688 Z M 209.621094 243.929688 L 206.621094 243.929688 L 206.621094 237.929688 L 209.621094 237.929688 Z M 203.621094 243.929688 L 200.621094 243.929688 L 200.621094 237.929688 L 203.621094 237.929688 Z M 197.621094 243.929688 L 194.621094 243.929688 L 194.621094 237.929688 L 197.621094 237.929688 Z M 191.621094 243.929688 L 188.621094 243.929688 L 188.621094 237.929688 L 191.621094 237.929688 Z M 185.621094 243.929688 L 182.621094 243.929688 L 182.621094 237.929688 L 185.621094 237.929688 Z M 179.621094 243.929688 L 176.621094 243.929688 L 176.621094 237.929688 L 179.621094 237.929688 Z M 173.621094 243.929688 L 170.621094 243.929688 L 170.621094 237.929688 L 173.621094 237.929688 Z M 167.621094 243.929688 L 164.621094 243.929688 L 164.621094 237.929688 L 167.621094 237.929688 Z M 161.621094 243.929688 L 158.621094 243.929688 L 158.621094 237.929688 L 161.621094 237.929688 Z M 155.621094 243.929688 L 153.835938 243.929688 C 153.347656 243.929688 152.859375 243.910156 152.371094 243.871094 L 152.859375 237.890625 C 153.183594 237.917969 153.511719 237.929688 153.835938 237.929688 L 155.621094 237.929688 Z M 148.835938 243.222656 C 147.679688 242.886719 146.566406 242.441406 145.5 241.882812 L 148.277344 236.566406 C 148.988281 236.9375 149.730469 237.234375 150.503906 237.457031 Z M 142.480469 239.898438 C 142.003906 239.507812 141.546875 239.09375 141.109375 238.660156 C 140.683594 238.234375 140.28125 237.789062 139.898438 237.320312 L 144.546875 233.523438 C 144.800781 233.835938 145.070312 234.132812 145.351562 234.417969 C 145.644531 234.707031 145.949219 234.984375 146.265625 235.242188 Z M 137.90625 234.308594 C 137.347656 233.242188 136.898438 232.132812 136.558594 230.976562 L 142.320312 229.292969 C 142.542969 230.066406 142.84375 230.804688 143.21875 231.515625 Z M 135.902344 227.441406 C 135.859375 226.9375 135.839844 226.4375 135.839844 225.933594 L 135.839844 224.183594 L 141.839844 224.183594 L 141.839844 225.933594 C 141.839844 226.269531 141.851562 226.605469 141.878906 226.9375 Z M 135.839844 221.183594 L 135.839844 218.183594 L 141.839844 218.183594 L 141.839844 221.183594 Z M 135.839844 215.183594 L 135.839844 212.183594 L 141.839844 212.183594 L 141.839844 215.183594 Z M 135.839844 209.183594 L 135.839844 206.183594 L 141.839844 206.183594 L 141.839844 209.183594 Z M 135.839844 203.183594 L 135.839844 200.183594 L 141.839844 200.183594 L 141.839844 203.183594 Z M 135.839844 197.183594 L 135.839844 194.183594 L 141.839844 194.183594 L 141.839844 197.183594 Z M 135.839844 191.183594 L 135.839844 188.183594 L 141.839844 188.183594 L 141.839844 191.183594 Z M 135.839844 185.183594 L 135.839844 182.183594 L 141.839844 182.183594 L 141.839844 185.183594 Z M 135.839844 179.183594 L 135.839844 176.183594 L 141.839844 176.183594 L 141.839844 179.183594 Z M 135.839844 173.183594 L 135.839844 170.183594 L 141.839844 170.183594 L 141.839844 173.183594 Z M 135.839844 167.183594 L 135.839844 164.183594 L 141.839844 164.183594 L 141.839844 167.183594 Z M 135.839844 161.183594 L 135.839844 158.183594 L 141.839844 158.183594 L 141.839844 161.183594 Z M 135.839844 155.183594 L 135.839844 153.742188 C 135.839844 153.113281 135.871094 152.488281 135.9375 151.867188 L 141.902344 152.492188 C 141.859375 152.90625 141.839844 153.324219 141.839844 153.742188 L 141.839844 155.183594 Z M 136.667969 148.34375 C 137.027344 147.195312 137.5 146.09375 138.082031 145.039062 L 143.332031 147.941406 C 142.945312 148.644531 142.632812 149.378906 142.390625 150.144531 Z M 140.140625 142.066406 C 140.449219 141.703125 140.773438 141.351562 141.109375 141.015625 C 141.632812 140.492188 142.1875 140 142.773438 139.546875 L 146.460938 144.277344 C 146.070312 144.582031 145.703125 144.90625 145.351562 145.257812 C 145.128906 145.484375 144.910156 145.714844 144.707031 145.957031 Z M 145.828125 137.625 C 146.90625 137.085938 148.027344 136.664062 149.191406 136.351562 L 150.742188 142.148438 C 149.964844 142.355469 149.21875 142.640625 148.496094 142.996094 Z M 152.742188 135.777344 C 153.105469 135.753906 153.472656 135.742188 153.835938 135.742188 L 156.835938 135.742188 L 156.835938 141.742188 L 153.835938 141.742188 C 153.59375 141.742188 153.351562 141.75 153.105469 141.765625 Z M 152.742188 135.777344 " fill-opacity="1" fill-rule="nonzero"/></g></g><g fill="#f2e9e1" fill-opacity="1"><g transform="translate(154.980595, 195.843575)"><g><path d="M 24.421875 -43.25 C 25.960938 -43.25 27.09375 -43.117188 27.8125 -42.859375 C 28.539062 -42.609375 29.0625 -42.1875 29.375 -41.59375 C 29.8125 -40.6875 30.03125 -39.46875 30.03125 -37.9375 L 30.03125 -15.109375 C 30.03125 -10.972656 28.535156 -7.320312 25.546875 -4.15625 C 22.554688 -0.988281 18.738281 0.59375 14.09375 0.59375 C 11.5 0.59375 9.203125 0.0195312 7.203125 -1.125 C 5.390625 -2.101562 4.128906 -2.988281 3.421875 -3.78125 L 2.953125 -4.25 C 1.578125 -5.707031 0.890625 -6.957031 0.890625 -8 C 0.890625 -9.039062 1.578125 -10.269531 2.953125 -11.6875 C 4.328125 -13.101562 5.546875 -13.8125 6.609375 -13.8125 C 7.671875 -13.8125 8.847656 -13.160156 10.140625 -11.859375 C 11.441406 -10.554688 12.847656 -9.90625 14.359375 -9.90625 C 15.878906 -9.90625 17.128906 -10.414062 18.109375 -11.4375 C 19.097656 -12.46875 19.59375 -13.828125 19.59375 -15.515625 L 19.59375 -37.578125 C 19.59375 -39.941406 19.984375 -41.457031 20.765625 -42.125 C 21.671875 -42.875 22.890625 -43.25 24.421875 -43.25 Z M 24.421875 -43.25 "/></g></g></g><g fill="#f2e9e1" fill-opacity="1"><g transform="translate(187.371217, 195.843575)"><g/></g></g><g fill="#f2e9e1" fill-opacity="1"><g transform="translate(192.914054, 231.193636)"><g><path d="M 33.15625 -23.1875 C 35.476562 -20.4375 36.640625 -17.347656 36.640625 -13.921875 C 36.554688 -9.992188 35.207031 -6.703125 32.59375 -4.046875 C 29.976562 -1.390625 26.800781 -0.0625 23.0625 -0.0625 L 7.546875 -0.0625 C 4.796875 -0.0625 3.1875 -0.804688 2.71875 -2.296875 C 2.476562 -2.960938 2.359375 -3.988281 2.359375 -5.375 L 2.359375 -38.109375 C 2.359375 -39.054688 2.382812 -39.742188 2.4375 -40.171875 C 2.5 -40.609375 2.691406 -41.125 3.015625 -41.71875 C 3.554688 -42.78125 5.085938 -43.3125 7.609375 -43.3125 L 22.484375 -43.3125 C 26.097656 -43.3125 29.125 -42.050781 31.5625 -39.53125 C 34.125 -36.96875 35.40625 -33.898438 35.40625 -30.328125 C 35.40625 -27.734375 34.65625 -25.351562 33.15625 -23.1875 Z M 26.203125 -14.515625 C 26.203125 -15.460938 26.09375 -16.207031 25.875 -16.75 C 25.65625 -17.300781 25.289062 -17.695312 24.78125 -17.9375 C 23.988281 -18.25 22.882812 -18.40625 21.46875 -18.40625 C 20.0625 -18.40625 19.003906 -18.679688 18.296875 -19.234375 C 17.585938 -19.785156 17.234375 -20.914062 17.234375 -22.625 C 17.234375 -24.332031 17.59375 -25.460938 18.3125 -26.015625 C 19.039062 -26.566406 20.253906 -26.84375 21.953125 -26.84375 C 23.523438 -26.84375 24.46875 -27.253906 24.78125 -28.078125 C 24.894531 -28.515625 24.953125 -29.222656 24.953125 -30.203125 C 24.953125 -31.191406 24.628906 -31.878906 23.984375 -32.265625 C 23.335938 -32.660156 22.363281 -32.859375 21.0625 -32.859375 L 12.796875 -32.859375 L 12.796875 -10.5 L 22.484375 -10.5 C 24.960938 -10.5 26.203125 -11.835938 26.203125 -14.515625 Z M 26.203125 -14.515625 "/></g></g></g><g fill="#f2e9e1" fill-opacity="1"><g transform="translate(231.023427, 231.193636)"><g/></g></g><g clip-path="url(#7bd9d00ffc)"><path stroke-linecap="butt" transform="matrix(0.604992, 0, 0, 0.604992, 190.903821, 189.693825)" fill="none" stroke-linejoin="miter" d="M -0.00244138 -195.996985 C 108.250512 -195.996985 161.77006 -102.691281 195.997002 0.00245847 C 226.001265 90.002335 141.999659 133.998257 55.002146 196.001902 C -33.151115 258.81909 -228.001267 126.999199 -140.997297 0.00245847 C -79.826566 -89.300095 -108.248938 -195.996985 -0.00244138 -195.996985 Z M -0.00244138 -195.996985 " stroke="#986106" stroke-width="2" stroke-opacity="1" stroke-miterlimit="4"/></g><g clip-path="url(#3e5aa9fb80)"><g mask="url(#a1b14acb2c)"><g transform="matrix(1, 0, 0, 1, 80, 61)"><g clip-path="url(#bf5d73df59)"><g clip-path="url(#311c396d7d)"><path stroke-linecap="butt" transform="matrix(0.603519, 0.0422021, -0.0422021, 0.603519, 110.900862, 128.778231)" fill="none" stroke-linejoin="miter" d="M -0.00102933 -196.000463 C 108.251095 -195.997408 161.772191 -102.691886 196.001621 0.00143651 C 225.997127 90.000595 141.999641 133.997066 55.002589 196.002554 C -33.15447 258.820547 -228.002235 127.002956 -141.000062 0.000655343 C -79.821371 -89.306095 -108.246262 -195.997527 -0.00102933 -196.000463 Z M -0.00102933 -196.000463 " stroke="#986106" stroke-width="2" stroke-opacity="1" stroke-miterlimit="4"/></g></g></g></g></g><g clip-path="url(#7c415f3c73)"><g mask="url(#c205edd80c)"><g transform="matrix(1, 0, 0, 1, 74, 57)"><g clip-path="url(#d9b83813af)"><g clip-path="url(#93ec38a63f)"><path stroke-linecap="butt" transform="matrix(0.600483, 0.07373, -0.07373, 0.600483, 116.894797, 132.841291)" fill="none" stroke-linejoin="miter" d="M 0.00327386 -195.997487 C 108.249422 -195.998351 161.768083 -102.695533 196.000848 0.000893645 C 226.000765 89.998516 142.003035 134.002485 54.997273 195.998336 C -33.155526 258.824575 -227.999744 127.00133 -141.000301 -0.0000446951 C -79.822641 -89.301389 -108.25007 -196.002244 0.00327386 -195.997487 Z M 0.00327386 -195.997487 " stroke="#986106" stroke-width="2" stroke-opacity="1" stroke-miterlimit="4"/></g></g></g></g></g><path stroke-linecap="butt" transform="matrix(0.274661, 0.539052, -0.539052, 0.274661, 190.903821, 189.693825)" fill="none" stroke-linejoin="miter" d="M -0.000966258 -196.001592 C 108.246678 -195.999918 161.770442 -102.690674 196.000212 -0.00168828 C 225.997764 90.001682 141.998276 134.000608 55.000513 196.001205 C -33.15272 258.818885 -228.000979 127.001872 -141.000666 0.00130149 C -79.824515 -89.301268 -108.248611 -196.003265 -0.000966258 -196.001592 Z M -0.000966258 -196.001592 " stroke="#edca8f" stroke-width="2" stroke-opacity="1" stroke-miterlimit="4"/><g clip-path="url(#0acd0f3106)"><g mask="url(#05aac85e35)"><g transform="matrix(1, 0, 0, 1, 50, 50)"><g clip-path="url(#472c94bc32)"><path stroke-linecap="butt" transform="matrix(0.236389, 0.556898, -0.556898, 0.236389, 140.900862, 139.778231)" fill="none" stroke-linejoin="miter" d="M 0.000203217 -196.003092 C 108.249537 -195.997624 161.767111 -102.695884 195.999872 -0.0022325 C 226.002164 90.002487 142.001825 134.000821 54.997345 195.999262 C -33.150512 258.824042 -227.998533 127.00185 -141.002324 -0.00159803 C -79.821843 -89.30499 -108.24571 -196.000095 0.000203217 -196.003092 Z M 0.000203217 -196.003092 " stroke="#edca8f" stroke-width="2" stroke-opacity="1" stroke-miterlimit="4"/></g></g></g><g mask="url(#c6f6c8e6f0)"><g transform="matrix(1, 0, 0, 1, 50, 50)"><g clip-path="url(#8011ad45cb)"><path stroke-linecap="butt" transform="matrix(0.186953, 0.575382, -0.575382, 0.186953, 140.888922, 139.883113)" fill="none" stroke-linejoin="miter" d="M 0.00305406 -195.99957 C 108.24737 -196.002516 161.76601 -102.692188 195.997136 -0.0001748 C 226.001269 90.00119 142.002989 133.999479 55.000989 195.996975 C -33.152454 258.821992 -228.001886 126.997269 -141.001228 0.00172572 C -79.825548 -89.301325 -108.247402 -195.998619 0.00305406 -195.99957 Z M 0.00305406 -195.99957 " stroke="#edca8f" stroke-width="2" stroke-opacity="1" stroke-miterlimit="4"/></g></g></g></g><path stroke-linecap="butt" transform="matrix(-0.601678, 0.0632389, -0.0632389, -0.601678, 190.903821, 189.693825)" fill="none" stroke-linejoin="miter" d="M 0.00263079 -195.997027 C 108.248482 -196.000861 161.766765 -102.691403 195.997522 -0.00224401 C 225.998081 89.997901 141.999244 133.996786 54.997769 196.001238 C -33.15399 258.819676 -227.999196 126.998365 -141.002868 -0.000640622 C -79.821347 -89.305067 -108.248966 -196.000288 0.00263079 -195.997027 Z M 0.00263079 -195.997027 " stroke="#b37b1f" stroke-width="2" stroke-opacity="1" stroke-miterlimit="4"/><g clip-path="url(#378ad8ffcf)"><g mask="url(#b63ca70297)"><g transform="matrix(1, 0, 0, 1, 50, 50)"><g clip-path="url(#d7153d7e4b)"><path stroke-linecap="butt" transform="matrix(-0.604624, 0.0211139, -0.0211139, -0.604624, 140.900862, 139.778231)" fill="none" stroke-linejoin="miter" d="M 0.000253591 -196.001107 C 108.248082 -196.000477 161.772224 -102.69408 196.000213 -0.00231985 C 226.000232 90.001714 142.000356 133.998387 55.000702 195.99945 C -33.151701 258.819522 -228.001091 127.002045 -140.999257 0.000662592 C -79.825576 -89.300396 -108.247575 -196.001738 0.000253591 -196.001107 Z M 0.000253591 -196.001107 " stroke="#b37b1f" stroke-width="2" stroke-opacity="1" stroke-miterlimit="4"/></g></g></g></g><g clip-path="url(#d31e5e731b)"><g mask="url(#8c21a37bc1)"><g transform="matrix(1, 0, 0, 1, 50, 50)"><g clip-path="url(#7007c9135a)"><path stroke-linecap="butt" transform="matrix(-0.603519, -0.0422021, 0.0422021, -0.603519, 140.885437, 139.903943)" fill="none" stroke-linejoin="miter" d="M 0.00068076 -196.002936 C 108.246364 -195.999436 161.767464 -102.693917 195.996899 -0.000595974 C 225.99885 89.99811 142.001817 134.001026 54.997876 196.000528 C -33.152288 258.824515 -228.000509 127.000493 -140.998342 -0.00181153 C -79.825646 -89.301673 -108.250993 -195.999544 0.00068076 -196.002936 Z M 0.00068076 -196.002936 " stroke="#b37b1f" stroke-width="2" stroke-opacity="1" stroke-miterlimit="4"/></g></g></g></g><g clip-path="url(#a0ced3288d)"><g clip-path="url(#07e40327b2)"><g clip-path="url(#59f66c2ff6)"><g mask="url(#e54cb1340d)"><g transform="matrix(1, 0, 0, 1, 50, 50)"><g clip-path="url(#d9a20c31b0)"><g clip-path="url(#7c96f21c5f)"><g clip-path="url(#83f8434420)"><g clip-path="url(#fa574532ee)"><path stroke-linecap="butt" transform="matrix(0.226634, -0.560939, -0.560939, -0.226634, 140.147082, 138.57196)" fill="none" stroke-linejoin="miter" d="M -0.000722528 -195.998014 C 108.246093 -196.002903 161.771505 -102.692187 195.997901 0.000842075 C 226.00111 89.998764 141.998762 133.998128 54.998903 195.999459 C -33.154833 258.822892 -228.000662 127.001327 -140.999721 0.000603163 C -79.822509 -89.300005 -108.245119 -195.999111 -0.000722528 -195.998014 Z M -0.000722528 -195.998014 " stroke="#986106" stroke-width="2" stroke-opacity="1" stroke-miterlimit="4"/></g></g></g><g clip-path="url(#294813c2df)"><g clip-path="url(#95a124ef41)"><g clip-path="url(#7d67782315)"><g mask="url(#d37cb77842)"><g><g clip-path="url(#b7c1d789bb)"><g clip-path="url(#97be458bea)"><g clip-path="url(#aa93d3c8c5)"><g clip-path="url(#e88da778ed)"><path stroke-linecap="butt" transform="matrix(0.186953, -0.575382, -0.575382, -0.186953, 140.067716, 138.543073)" fill="none" stroke-linejoin="miter" d="M -0.00200566 -196.002725 C 108.246435 -195.997542 161.767066 -102.693375 195.998192 -0.00138378 C 226.002325 89.999962 141.997922 133.996253 55.000089 196.001879 C -33.151339 258.820749 -228.002737 127.002203 -141.000109 0.000537401 C -79.824445 -89.3025 -108.246301 -195.999772 -0.00200566 -196.002725 Z M -0.00200566 -196.002725 " stroke="#986106" stroke-width="2" stroke-opacity="1" stroke-miterlimit="4"/></g></g></g></g></g></g></g></g></g><g clip-path="url(#b9677d141d)"><g clip-path="url(#a28131acdd)"><g clip-path="url(#f2155cfe7b)"><g mask="url(#b8e49fbbc7)"><g><g clip-path="url(#54e92389e1)"><g clip-path="url(#616df6d268)"><g clip-path="url(#a47301d4bf)"><g clip-path="url(#8b6677bfd2)"><path stroke-linecap="butt" transform="matrix(0.156583, -0.584378, -0.584378, -0.156583, 140.006984, 138.525085)" fill="none" stroke-linejoin="miter" d="M 0.00176804 -196.002732 C 108.24966 -196.001681 161.769478 -102.69086 195.998862 -0.00350608 C 225.999873 90.000109 141.997338 134.002096 54.998242 195.997864 C -33.151842 258.821584 -228.002971 126.999451 -140.998852 -0.00136172 C -79.824354 -89.304417 -108.247795 -195.997546 0.00176804 -196.002732 Z M 0.00176804 -196.002732 " stroke="#986106" stroke-width="2" stroke-opacity="1" stroke-miterlimit="4"/></g></g></g></g></g></g></g></g></g><g clip-path="url(#5475c70850)"><g clip-path="url(#b77483fa60)"><g clip-path="url(#8e939d04b8)"><path stroke-linecap="butt" transform="matrix(-0.396911, -0.456593, -0.456593, 0.396911, 140.147082, 138.57196)" fill="none" stroke-linejoin="miter" d="M -0.00116207 -196.001712 C 108.247491 -196.002124 161.769275 -102.69307 196.003055 -0.000351109 C 225.998288 90.002217 142.000569 134.00106 55.00038 196.000726 C -33.151064 258.821503 -227.999932 126.997922 -141.003837 -0.000634396 C -79.824827 -89.302811 -108.249816 -196.001299 -0.00116207 -196.001712 Z M -0.00116207 -196.001712 " stroke="#edca8f" stroke-width="2" stroke-opacity="1" stroke-miterlimit="4"/></g></g></g><g clip-path="url(#ed47b982b0)"><g clip-path="url(#cbf0f9c54a)"><g clip-path="url(#ecf542eead)"><g mask="url(#01e6b1933d)"><g><g clip-path="url(#6c7508f287)"><g clip-path="url(#6b720bb8ee)"><g clip-path="url(#6a591321ae)"><g clip-path="url(#a65397d6bc)"><path stroke-linecap="butt" transform="matrix(-0.427794, -0.427794, -0.427794, 0.427794, 140.067716, 138.543073)" fill="none" stroke-linejoin="miter" d="M 0.00164195 -195.998614 C 108.246798 -196.003185 161.769008 -102.696585 196.001675 0.00139774 C 225.997491 89.997959 142.000093 134.00095 54.998549 196.001428 C -33.153519 258.823709 -227.998459 127.001948 -141.001484 0.00141665 C -79.82282 -89.301183 -108.248079 -195.998607 0.00164195 -195.998614 Z M 0.00164195 -195.998614 " stroke="#edca8f" stroke-width="2" stroke-opacity="1" stroke-miterlimit="4"/></g></g></g></g></g></g><g mask="url(#5a009c085a)"><g><g clip-path="url(#50c2d81bad)"><g clip-path="url(#4b0baf6376)"><g clip-path="url(#6f0d3d2488)"><g clip-path="url(#c4c543f96e)"><path stroke-linecap="butt" transform="matrix(-0.463451, -0.388881, -0.388881, 0.463451, 139.965997, 138.514861)" fill="none" stroke-linejoin="miter" d="M -0.00220248 -195.999257 C 108.248363 -196.001449 161.769731 -102.694569 196.002098 -0.000658807 C 225.998533 90.002261 142.000381 133.996914 55.003855 195.999316 C -33.153664 258.822824 -228.002593 126.999895 -141.000446 0.000716899 C -79.820873 -89.303425 -108.248618 -196.002012 -0.00220248 -195.999257 Z M -0.00220248 -195.999257 " stroke="#edca8f" stroke-width="2" stroke-opacity="1" stroke-miterlimit="4"/></g></g></g></g></g></g></g></g></g><g clip-path="url(#156c23a649)"><g clip-path="url(#4d6810db47)"><g clip-path="url(#4719120c29)"><path stroke-linecap="butt" transform="matrix(-0.284027, 0.534176, 0.534176, 0.284027, 140.147082, 138.57196)" fill="none" stroke-linejoin="miter" d="M -0.00113189 -195.999265 C 108.24848 -195.999866 161.767611 -102.694579 195.999541 -0.00267611 C 226.002988 89.998426 142.000019 133.999246 55.001502 195.99792 C -33.152859 258.822615 -227.999769 127.001125 -140.999171 0.00133123 C -79.826676 -89.301577 -108.250744 -195.998664 -0.00113189 -195.999265 Z M -0.00113189 -195.999265 " stroke="#b37b1f" stroke-width="2" stroke-opacity="1" stroke-miterlimit="4"/></g></g></g><g clip-path="url(#6335623814)"><g clip-path="url(#efd8849e36)"><g clip-path="url(#e65ede49d5)"><g mask="url(#89fe476cce)"><g><g clip-path="url(#800a5ae811)"><g clip-path="url(#fb6c9f5d80)"><g clip-path="url(#9a98ce1788)"><g clip-path="url(#5990f541bb)"><path stroke-linecap="butt" transform="matrix(-0.246073, 0.552688, 0.552688, 0.246073, 140.067716, 138.543073)" fill="none" stroke-linejoin="miter" d="M -0.00142825 -195.998242 C 108.247613 -195.997523 161.766922 -102.693403 196.002815 -0.00157289 C 226.002149 89.99746 142.001008 134.003867 55.001933 195.998683 C -33.150847 258.822706 -228.000015 126.999358 -141.00231 0.00201429 C -79.824306 -89.306663 -108.250469 -195.99896 -0.00142825 -195.998242 Z M -0.00142825 -195.998242 " stroke="#b37b1f" stroke-width="2" stroke-opacity="1" stroke-miterlimit="4"/></g></g></g></g></g></g><g mask="url(#f921948581)"><g><g clip-path="url(#efd77f3243)"><g clip-path="url(#464b762398)"><g clip-path="url(#fdc1369054)"><g clip-path="url(#525598e6fa)"><path stroke-linecap="butt" transform="matrix(-0.186953, 0.575382, 0.575382, 0.186953, 139.945388, 138.510289)" fill="none" stroke-linejoin="miter" d="M -0.00120716 -195.998125 C 108.249251 -195.999081 161.769891 -102.694895 196.001022 -0.00288153 C 225.999019 89.996488 141.998744 134.000922 55.002887 196.000418 C -33.156695 258.823445 -227.999995 127.000724 -140.997347 -0.000965751 C -79.82167 -89.304021 -108.24967 -196.00331 -0.00120716 -195.998125 Z M -0.00120716 -195.998125 " stroke="#b37b1f" stroke-width="2" stroke-opacity="1" stroke-miterlimit="4"/></g></g></g></g></g></g></g></g></g></g></g></g></g></g></g></svg>