<svg xmlns="http://www.w3.org/2000/svg" version="1.1" xmlns:xlink="http://www.w3.org/1999/xlink" xmlns:svgjs="http://svgjs.dev/svgjs" width="2000" height="166" viewBox="0 0 2000 166"><g transform="matrix(1,0,0,1,-1.2121212121212466,0.48095976774243354)"><svg viewBox="0 0 396 33" data-background-color="#edf1f7" preserveAspectRatio="xMidYMid meet" height="166" width="2000" xmlns="http://www.w3.org/2000/svg" xmlns:xlink="http://www.w3.org/1999/xlink"><g id="tight-bounds" transform="matrix(1,0,0,1,0.2400000000000091,-0.0956124839487984)"><svg viewBox="0 0 395.52 33.19122496789759" height="33.19122496789759" width="395.52"><g><svg viewBox="0 0 442.6724309636313 37.148160000000004" height="33.19122496789759" width="395.52"><g transform="matrix(1,0,0,1,47.152430963631346,5.134080000000003)"><svg viewBox="0 0 395.52 26.88" height="26.88" width="395.52"><g id="textblocktransform"><svg viewBox="0 0 395.52 26.88" height="26.88" width="395.52" id="textblock"><g><svg viewBox="0 0 395.52 26.88" height="26.88" width="395.52"><g transform="matrix(1,0,0,1,0,0)"><svg width="395.52" viewBox="0 -50 643.72 43.75" height="26.88" data-palette-color="#2b4f3d"><path d="M37.5-6.25L6.25-6.25 6.25-12.5 0-12.5 0-18.75 12.5-18.75 12.5-12.5 31.25-12.5 31.25-50 43.75-50 43.75-12.5 37.5-12.5 37.5-6.25ZM62.5-6.25L50-6.25 50-37.5 56.25-37.5 56.25-43.75 62.5-43.75 62.5-50 81.25-50 81.25-43.75 87.5-43.75 87.5-37.5 93.75-37.5 93.75-6.25 81.25-6.25 81.25-18.75 62.5-18.75 62.5-6.25ZM62.5-37.5L62.5-25 81.25-25 81.25-37.5 75-37.5 75-43.75 68.75-43.75 68.75-37.5 62.5-37.5ZM143.75-6.25L112.5-6.25 112.5-12.5 106.25-12.5 106.25-18.75 100-18.75 100-37.5 106.25-37.5 106.25-43.75 112.5-43.75 112.5-50 143.75-50 143.75-43.75 118.75-43.75 118.75-37.5 112.5-37.5 112.5-18.75 118.75-18.75 118.75-12.5 131.25-12.5 131.25-25 125-25 125-31.25 143.75-31.25 143.75-6.25ZM193.74-6.25L156.24-6.25 156.24-12.5 168.74-12.5 168.74-43.75 156.24-43.75 156.24-50 193.74-50 193.74-43.75 181.24-43.75 181.24-12.5 193.74-12.5 193.74-6.25ZM212.49-6.25L199.99-6.25 199.99-50 237.49-50 237.49-43.75 243.74-43.75 243.74-25 231.24-25 231.24-18.75 237.49-18.75 237.49-12.5 243.74-12.5 243.74-6.25 224.99-6.25 224.99-12.5 218.74-12.5 218.74-18.75 212.49-18.75 212.49-6.25ZM212.49-43.75L212.49-25 224.99-25 224.99-31.25 231.24-31.25 231.24-43.75 212.49-43.75ZM287.49-6.25L249.99-6.25 249.99-50 287.49-50 287.49-43.75 293.74-43.75 293.74-31.25 287.49-31.25 287.49-25 293.74-25 293.74-12.5 287.49-12.5 287.49-6.25ZM262.49-43.75L262.49-31.25 281.24-31.25 281.24-43.75 262.49-43.75ZM262.49-25L262.49-12.5 281.24-12.5 281.24-25 262.49-25ZM312.49-6.25L299.99-6.25 299.99-37.5 306.24-37.5 306.24-43.75 312.49-43.75 312.49-50 331.24-50 331.24-43.75 337.49-43.75 337.49-37.5 343.74-37.5 343.74-6.25 331.24-6.25 331.24-18.75 312.49-18.75 312.49-6.25ZM312.49-37.5L312.49-25 331.24-25 331.24-37.5 324.99-37.5 324.99-43.75 318.74-43.75 318.74-37.5 312.49-37.5ZM362.48-6.25L349.98-6.25 349.98-50 362.48-50 362.48-43.75 368.73-43.75 368.73-37.5 374.98-37.5 374.98-31.25 381.23-31.25 381.23-50 393.73-50 393.73-6.25 381.23-6.25 381.23-18.75 374.98-18.75 374.98-25 368.73-25 368.73-31.25 362.48-31.25 362.48-6.25ZM412.48-6.25L399.98-6.25 399.98-50 412.48-50 412.48-31.25 418.73-31.25 418.73-37.5 424.98-37.5 424.98-43.75 431.23-43.75 431.23-50 443.73-50 443.73-43.75 437.48-43.75 437.48-37.5 431.23-37.5 431.23-31.25 424.98-31.25 424.98-25 431.23-25 431.23-18.75 437.48-18.75 437.48-12.5 443.73-12.5 443.73-6.25 424.98-6.25 424.98-12.5 418.73-12.5 418.73-18.75 412.48-18.75 412.48-6.25ZM474.98-6.25L462.48-6.25 462.48-18.75 474.98-18.75 474.98-6.25ZM537.48-6.25L512.48-6.25 512.48-12.5 506.23-12.5 506.23-18.75 499.98-18.75 499.98-37.5 506.23-37.5 506.23-43.75 512.48-43.75 512.48-50 537.48-50 537.48-43.75 543.73-43.75 543.73-37.5 531.23-37.5 531.23-43.75 518.73-43.75 518.73-37.5 512.48-37.5 512.48-18.75 518.73-18.75 518.73-12.5 531.23-12.5 531.23-18.75 543.73-18.75 543.73-12.5 537.48-12.5 537.48-6.25ZM587.47-6.25L556.22-6.25 556.22-12.5 549.97-12.5 549.97-43.75 556.22-43.75 556.22-50 587.47-50 587.47-43.75 593.72-43.75 593.72-12.5 587.47-12.5 587.47-6.25ZM562.47-43.75L562.47-12.5 581.22-12.5 581.22-43.75 562.47-43.75ZM612.47-6.25L599.97-6.25 599.97-50 612.47-50 612.47-43.75 618.72-43.75 618.72-37.5 624.97-37.5 624.97-43.75 631.22-43.75 631.22-50 643.72-50 643.72-6.25 631.22-6.25 631.22-31.25 624.97-31.25 624.97-18.75 618.72-18.75 618.72-31.25 612.47-31.25 612.47-6.25Z" opacity="1" transform="matrix(1,0,0,1,0,0)" fill="#000000" class="wordmark-text-0" data-fill-palette-color="primary" id="text-0"></path></svg></g></svg></g></svg></g></svg></g><g><svg viewBox="0 0 40.80670808363135 37.148160000000004" height="37.148160000000004" width="40.80670808363135"><g><svg xmlns="http://www.w3.org/2000/svg" xmlns:xlink="http://www.w3.org/1999/xlink" version="1.1" x="0" y="0" viewBox="5 10.116999999999994 90.00000000000001 81.93100000000001" enable-background="new 0 0 100 100" xml:space="preserve" height="37.148160000000004" width="40.80670808363135" class="icon-icon-0" data-fill-palette-color="accent" id="icon-0"><path d="M93.562 84.607h-2.34v-3.641c0-0.777-0.644-1.406-1.437-1.406h-4.021V51.964c0-0.694-0.576-1.26-1.287-1.26h-5.258c-0.712 0-1.287 0.563-1.287 1.26v27.599H67.445V52.2c0-0.695-0.576-1.261-1.287-1.261H60.9c-0.713 0-1.289 0.564-1.289 1.261v27.36H40.387V51.964c0-0.694-0.576-1.26-1.288-1.26h-5.257c-0.711 0-1.288 0.563-1.288 1.26v27.599H22.065V52.2c0-0.695-0.576-1.261-1.288-1.261H15.52c-0.711 0-1.287 0.564-1.287 1.261v27.36h-4.021c-0.793 0-1.437 0.629-1.437 1.406v3.641H6.436C5.643 84.607 5 85.236 5 86.016v4.627c0 0.776 0.643 1.405 1.436 1.405h87.126c0.793 0 1.438-0.629 1.438-1.405v-4.627C95 85.236 94.355 84.607 93.562 84.607z" fill="#000000" data-fill-palette-color="accent"></path><g fill="#5f5555" data-fill-palette-color="accent"><path d="M92.902 41.39l-37.592-20.33c0.04 0.213 0.066 0.431 0.066 0.655v1.134c0 1.935-1.589 3.51-3.542 3.51h-1.274v1.757h6.03c1.953 0 3.543 1.574 3.543 3.51v1.432c0 1.935-1.59 3.51-3.543 3.51H45.37c-1.953 0-3.542-1.575-3.542-3.51v-7.073c-0.935-0.467-1.625-1.336-1.858-2.375L6.947 41.47c-1.092 0.591-1.637 1.83-1.326 3.011 0.312 1.183 1.401 2.01 2.649 2.01h83.458c0.004 0 0.008 0 0.012 0 1.511 0 2.734-1.199 2.734-2.677C94.475 42.742 93.831 41.818 92.902 41.39z" fill="#000000" data-fill-palette-color="accent"></path></g><path d="M58.134 33.058c0 0.834-0.69 1.51-1.543 1.51H45.37c-0.853 0-1.542-0.676-1.542-1.51V24.36h-0.409c-0.853 0-1.542-0.676-1.542-1.51v-1.134c0-0.834 0.689-1.51 1.542-1.51h0.409v-2.132c0-4.76 3.218-7.957 8.007-7.957 2.347 0 4.312 0.762 5.847 2.263 0.604 0.59 0.604 1.546 0 2.135l-1.129 1.104c-0.301 0.295-0.695 0.442-1.09 0.442s-0.789-0.147-1.091-0.442c-0.647-0.634-1.175-1.05-2.537-1.05-0.812 0-3.274 0-3.274 3.833v1.804h3.274c0.853 0 1.542 0.676 1.542 1.51v1.134c0 0.834-0.689 1.51-1.542 1.51h-3.274v5.756h8.03c0.853 0 1.543 0.675 1.543 1.51V33.058z" fill="#000000" data-fill-palette-color="accent"></path></svg></g></svg></g></svg></g><defs></defs></svg><rect width="395.52" height="33.19122496789759" fill="none" stroke="none" visibility="hidden"></rect></g></svg></g></svg>